/* XPM */
static char *_1de9794abf14d34fdffbfb5d3e40c99pAGwZvQx3M9TynKP[] = {
/* columns rows colors chars-per-pixel */
"96 64 255 2 ",
"   c #3C2519",
".  c #562B18",
"X  c #552C13",
"o  c #662D16",
"O  c #6C3315",
"+  c #65331C",
"@  c #6C3B1C",
"#  c #69351B",
"$  c #72361A",
"%  c #743C1D",
"&  c #7B3C1C",
"*  c #743716",
"=  c #6F2F0A",
"-  c #5A3625",
";  c #4E3123",
":  c #643422",
">  c #663923",
",  c #6C3B24",
"<  c #633B2B",
"1  c #6C3D2A",
"2  c #693625",
"3  c #733D23",
"4  c #7C3E23",
"5  c #733D2A",
"6  c #753722",
"7  c #683C31",
"8  c #723E30",
"9  c #7B411E",
"0  c #76401C",
"q  c #6D401F",
"w  c #6D412B",
"e  c #6F4122",
"r  c #744226",
"t  c #7C4324",
"y  c #73432B",
"u  c #7B442B",
"i  c #7D4A2C",
"p  c #77482B",
"a  c #6D4432",
"s  c #6A4836",
"d  c #744432",
"f  c #7C4632",
"g  c #744A34",
"h  c #7C4B34",
"j  c #7C4D3A",
"k  c #764939",
"l  c #7E523B",
"z  c #7C5337",
"x  c #5C412E",
"c  c #7C5444",
"v  c #784D41",
"b  c #823E1B",
"n  c #843F24",
"m  c #87451C",
"M  c #914C1F",
"N  c #96501F",
"B  c #834424",
"V  c #854A25",
"C  c #8B4A23",
"Z  c #83462B",
"A  c #844B2C",
"S  c #8B4C2B",
"D  c #8A4628",
"F  c #924F2C",
"G  c #944B28",
"H  c #8C522D",
"J  c #8C522B",
"K  c #93532C",
"L  c #9B552B",
"P  c #9C5A2E",
"I  c #965628",
"U  c #844C33",
"Y  c #8B4D32",
"T  c #834D3A",
"R  c #874B36",
"E  c #934D33",
"W  c #9A4E35",
"Q  c #845235",
"!  c #8C5334",
"~  c #84533C",
"^  c #8C543B",
"/  c #8D593C",
"(  c #8A5937",
")  c #935434",
"_  c #9B5534",
"`  c #945A34",
"'  c #9C5B34",
"]  c #93553A",
"[  c #9A563B",
"{  c #935A3C",
"}  c #9B5C3C",
"|  c #A25A2E",
" . c #A25D34",
".. c #A15C3C",
"X. c #A75C39",
"o. c #9D6136",
"O. c #9C623E",
"+. c #95603C",
"@. c #A46235",
"#. c #AB6435",
"$. c #A3633C",
"%. c #AB653C",
"&. c #AC6B3C",
"*. c #A66A3B",
"=. c #B36B3C",
"-. c #B46839",
";. c #AC6B37",
":. c #C5763E",
">. c #845443",
",. c #8B5642",
"<. c #855A43",
"1. c #8C5B44",
"2. c #8C5D4B",
"3. c #83584A",
"4. c #945C43",
"5. c #9B5D42",
"6. c #935D4A",
"7. c #995D49",
"8. c #925642",
"9. c #814C44",
"0. c #A25D43",
"q. c #A95E43",
"w. c #8D614B",
"e. c #8D6346",
"r. c #956244",
"t. c #9C6244",
"y. c #95634C",
"u. c #9C644B",
"i. c #9D6A4B",
"p. c #996948",
"a. c #956551",
"s. c #9C6551",
"d. c #9C6B53",
"f. c #986B55",
"g. c #9E7259",
"h. c #906750",
"j. c #A36443",
"k. c #AB6543",
"l. c #A36A44",
"z. c #AB6B44",
"x. c #A4654B",
"c. c #A46B4C",
"v. c #AB6C4C",
"b. c #AB664B",
"n. c #B36C43",
"m. c #B26C4B",
"M. c #B56847",
"N. c #AD7245",
"B. c #AC724C",
"V. c #A7724B",
"C. c #B37245",
"Z. c #BB7344",
"A. c #B3734C",
"S. c #BB744C",
"D. c #B57A4C",
"F. c #BB7A4D",
"G. c #B97A45",
"H. c #A26652",
"J. c #A26C53",
"K. c #AC6D52",
"L. c #A36E5A",
"P. c #B36E52",
"I. c #A47254",
"U. c #AC7254",
"Y. c #A4735B",
"T. c #AC755B",
"R. c #AD795B",
"E. c #AA7A56",
"W. c #B37453",
"Q. c #BA7553",
"!. c #B47A54",
"~. c #BB7C54",
"^. c #B27559",
"/. c #B47B5B",
"(. c #BC7C5B",
"). c #BA7759",
"_. c #AC7B63",
"`. c #A87762",
"'. c #B47C63",
"]. c #BB7D61",
"[. c #B27964",
"{. c #9C7261",
"}. c #C37B4B",
"|. c #C47749",
" X c #C27C54",
".X c #C27D5A",
"XX c #C77B55",
"oX c #C07D60",
"OX c #B4815C",
"+X c #BC825C",
"@X c #BC8155",
"#X c #B6814F",
"$X c #B48264",
"%X c #BC8364",
"&X c #BC856B",
"*X c #BC8A6A",
"=X c #B78768",
"-X c #B98A73",
";X c #B69174",
":X c #C4834D",
">X c #C38255",
",X c #CB8454",
"<X c #C4845C",
"1X c #CB845B",
"2X c #C5895D",
"3X c #CB8C5C",
"4X c #C68A55",
"5X c #D38D5C",
"6X c #D48A58",
"7X c #CD915D",
"8X c #D8905D",
"9X c #C38463",
"0X c #CA8564",
"qX c #C48B65",
"wX c #CB8C63",
"eX c #C48C6C",
"rX c #CB8D6A",
"tX c #C28569",
"yX c #D28B65",
"uX c #CC9165",
"iX c #CB936C",
"pX c #C4916D",
"aX c #D39364",
"sX c #D3946C",
"dX c #DA946A",
"fX c #D59A6C",
"gX c #DC9B6B",
"hX c #D99765",
"jX c #C68E73",
"kX c #CB9474",
"lX c #C99676",
"zX c #D49571",
"xX c #D49C73",
"cX c #DA9C73",
"vX c #D69B79",
"bX c #D38F73",
"nX c #E49A69",
"mX c #E29C74",
"MX c #DCA174",
"NX c #DBA27C",
"BX c #D6A279",
"VX c #DDA46F",
"CX c #E2A273",
"ZX c #E3A47C",
"AX c #E8A978",
"SX c #EDB17D",
"DX c #ECA874",
"FX c #E1935C",
"GX c #D49F81",
"HX c #D7A585",
"JX c #E4AA82",
"KX c #E9B284",
"LX c #F5B988",
"PX c #F1B792",
"IX c #FDC399",
/* pixels */
"Z ] 5.5.5.v.x.^.U.U.i.t.i.U.$XpX<X1X XaXhX>X>XaXcXZXfXfXgXfX7XuX/.c.U.B.!.iXxXpXqX(.B.B.B.W.).^.x.K.v.v.K.W.K.U.t.! T 6.2.>.3.d T J.'./.^.^.U.l./.R.! I.'.Y.y.f.g.Y.=XQ *XpXE.p.*X%XqXxXv.~.9X+X",
"# o o O O $ t B t ` % O O * 0 0 C M #.#.| P M m m P &.~.&.m P I C V H H l.N.J ` V C J K S ` ` K } j.j.) K K } v.t.^ ! U , d k + i u u A ! S S ! A { A r Q p y , 3 Q / i ( ( ! ( { c.t.O.` J ! J ",
", z p p +.( { +.!.O.l.N.J K $.>X,X,X}.Z.,X6X|.,X4XF.D.F.hX6XhXgXhXSXAXSXAXVXAXVXSXhX3XhX>X3XD.D.<XA.~.C.aX3XcXcXNXxXpXpXr.R._.,.f 1.~ ^ t.U.R.%X(.v.t.U ( %X[.7.(.rX<X!.qX2XB.l.H !.t.R.p.I.J.$X",
"g e.l e.I.( / OXeX%XB.N.wXuXC.gXhX5X5X6X6XnXDX8X,X XF.2XmXgX8XhXhXLXLXSXSXLXgXhXSXMX4XaX>XaX2XwX XA.A.<XsXcXcXBXNXiX*XpXI.R._.y.~ 1.L.1.1.J.&XU.^.c.{ t.r./.c.c.wXrXsX@XwXMXNXrX` ` J r./ r.r.i.",
"- < - - < y 5 r @ Z V S ' ' ' z.&.#.@.=.C.@.@.C.z.` C ' z.%.n. .&. X>Xn.%.F.z.A.A..Xz..._ S K ' D 4 & [ 5.x.^ ~ ~ h g g 3.g g w 1 k y 5 h ~ i f ! 3 Z U % % 4.! { ` J H +.` +.V.` J ` V t ! ( U ",
"s 7 < - < k 1 y Q ! t.B.^.v.N.W.C.@.:X3XF.F.C.&.A.!.~.N.+X2XsX1XyX X X1X1XsXwXA.` k.Q.(.zX..' F j.4.4.] ] R ,.,.w.c g g d c w.2.>.,.d ,.a.1., f u./ U.R.%X].]./.J.u.Q /.iXBXJXiXrXvXcX(.` qX!./.",
"c c c s < g j 1.1.p.R.OX%XqXOX<XCX~.hXAXhXhXaX2X>XsXZXwXcXAXgXhX3X4XdXaXfXZX~.<X<XA.A.<XcXC.A.$.} j.0.v.K.&XT.4.Y.`._.-Xa._.$Xd.s.s.a.,.`.~ i T jX7.T.lXvXrX/.tXeX/.) tXvXsXcXZXcXZXcX9XA.ZXsXrX",
"-   ; < . . y p i { A ! V V ) o.z.~.D.C.F.&.L I ' %.&.C.%.%.@.' P o.N.N.D.D.o.I ' K S I ' %.z.$.k.k.' F [ K.x.i u / i.r.( A A t Z u u Y u U R 8.u.U O B H m B & S j.} ` K K $. . .P @.@.L &.@. .",
"k g g w <.y p i ! U.O.} $.v.k.z.v.v.$.K z.' &.' %.*.$.$.I $.F.>X' B.B.` B.v.B.B.o.V <XwXiXzX~.sX<X Xk.} z.} l.U.{ ` O.{ H A.z.k.k.k.k.Q.P.D j.x.k.b.k.$.z.n.@.L z.<XA.C.F.>X3X=.L F.|.}.=.Z.%.&.",
"f.z ~ z i.r.+.r.t.U.(.(.~.(.<Xv.} { j.} W.$.z.~.cXwX~.B.+XqXcXZXt.J./ % / /.U.t.) x.rXqXqX!.W.+X(.<XA.v.9XqXK.K.kXeXrXU.B.JXrX.X X.X.X.X.X[ } v.(.W..X.X<XcX X1XJXcXwX<XZXwXSX3X=.SXgXgX5XhX3X4X",
"q @ e X @ ! +.J ` +.+.~.+Xv.B.O.! { } } B.` V +.+XV.O.B.B.B.l.( U f h f f ^ R U o 6 K.t.4.^ ] x.] ! ! c.t.7.Z R 8.u.x.{ [ x.b.b.j._ D $ $ Z ] t.t.{ ] c.U./.v.c.j.} ) O.j.$.k.z.K ~.n.z.' A.z.o.",
"% ! } } ` O.!.l.N.K ` z.K ` O.l.` t.! l.` O.k.} O.t.! % { ` O.! 4.6.i.J.U 4.c.{ %XeX].c.^.5.Z 4 ^ t.u.J.8.R 6 8.H.7.H.K.^.5.x.0.Y ) } j.K.x.Z Y { u { 5.] { ^.) j.O.K B K ` $.Q.A.' $.` K ' ) } ",
"L M.S..XS. XyXXXdXXX1Xn.Q.cXA.~.rXcXA.z.@.wXdX2XD.~.B.z.(.cXsXz.l.+XOXxXD.MXKXAXLXZXMXZXHXrXc.{ K.eXc.c.(.] 4 (.eX/.rX9X9XrXbX9Xk.b.(.0XQ.(.).).v.) (.W.~.b.v.<X1X1X#.L ,XS.1XF.1XyXcXA.A.uX!.(.",
"_ F F _ _ X. . .%.z.S.G G $.$.' $.P ' n.C.=. .&.$.o.' H ~.!.9X<X<XB.C z.G.7X7XhXgXhXfXuXiX+XH O.t.Y B { ] B S } Y t { ^.j.t.5.j.Y v.W.v.c.W.W.).v.} } W.W.' } b.n.XX . .Z.S.Z.C.n.yXsX*.I ~.~.!.",
"{ u r A U u O % t t.t.Z ! t u t } ' C.C.P L @.@.C B ! t.! & D } ' K P  .&.&.&.;.&.C.P V J } { 3 i / Q u r ! { { U U i i 5 i R y h ~ ~ ~ ~ f 5 f U 8.% u Y U A t Z { 5.] { _ S K C ' $.z.K K K J ",
"2.f.w.1.w.e.1.r./ i.R.p.i.R.J./.NXCX~.2XwX>X>XcXv.v.^.!.W.t.c.j.k.S.AXmX5X5XaX5XaXwX<XU./.T.J.u.d.$X=Xy.~ Y._._.L.y.y.j <.,.>.2.2.a.w.2.`.Y.6.T.u.~ T.Y.J.jXu.u.J.L.H.u.x.^.(.v.j.(.(.(.9XwX<X<X",
",.>.1 w j l ~ <., p 1.( r.I.# 4.rX<X.X~.z.m J $.} A.k.S $.} D ) z.A.<X~.1XS.A.A.z.W.U.{ ~ ,.f.d.y.p.a.<.3.h.{.w.>.a j ,.>.j 9.d 8 j 2.2.d.L./ y.y.d.[.Y.Y.E.p.7.H.H.[.'.'.t.].c.{ /.U.U.O.v.B.W.",
"2 , > > 1 y w.h U % O A t t 4 } K K G C I $.o.J N.z. . .C $._ $.@.F.@.|  .M L L L K ) } A R , i % r r <.>.g k d j u u i R R ^ T 5 f ^ ^ ^ ] Y Z Z A A i U u Q Y 4 Y Y Z ] ^ Z 5.c.t.! & B m H J ",
"~ w h <.Y.d.i.c.l.} z.%.n.dXdX1X|.}.Z.aXgXAXSXVXaXCXLXCX}.5XhXaXnX8X6X6X}.-.DX8XnX8X6XdXaXdX$.z.W.jX[.s.T.4.J.u.W.A.S.|.|.Z.|.F.' b.Q.Q. X|.M.n.S.M...Q.l.c.} ^.B.W.j.$.j.l.l.9X<XW.$.k.$.C.A.>X",
"( h ( Q i.E.t.!.~.%.XXZ.6X6X|.|.,X,X>XhXgXAXAXhXfXCXCXgX,XZ. XnX8X}.|.-.:.|.FXnXFX8X,X,X1X5XZ.z.j.x.8.u R 6 t.j.~.1X3X,XZ.|.aX1XX.m.). XXX|.|.XXyXQ.F W.!.t.c.c.B.l.l.` S B ` ` $.` S K z.wXyXhX",
"B A Z t A ! J ' I @.&. .=.| L  .&.%.N.o.K l.O.O.` ' B ' z.C & K L C m m ' F.@.C.&.%. ...C b ) D B Z u 5 f 5 5 R Y ! ) O.! ! p.4.^ Z 4.] E ) ) } t.U 3 i U i ~ 8.{ S t.& Z ! ) A Z { } S S b.k._ ",
"A.W.(.(.eXc.O.!.~.2X>XaX3X3XD.F.aXwXwXfXBXxXiX!.` !.v.z.A.z.n.A.<X$.~.0X<XwX2X~.<X<X$.A.v.) ] ] x.H.[.6.T T Z 6 X O $ Z R ^ y.T.u.^ 7.] 4.{ ! 4.r / 8.J.J.u.u.^ R.U.%X&XvXvXjX/.{ U.%X/.x.^.(.(.",
"OXkXvX*XeX/.!.iXxXfXcXZXZXKXwXwXCXSXCXAXKXAXLXMXD.fXdXgX>X5X8XCXdX X<X1XwXF.sXsXwX<Xv.(.zXoXb.K.].'.&X7.H.4.^ ] j.^.b.E Y 7.7.7.4.4.0.] b.j.} v.v.t.v.O.).).).b.JXpX%XkXHXlXHXjXt.p./.&XjX%X&X%X",
"t ( i t % t O.H ' '  .L P  .G %.;.;.=.&.&.C.N.D.&.@.&.@.-.-.#.#.%.C.L K M F I I I m $.' } .._ Y { { A 3 U ] 4 n ) E S D n E D 6 4 B Z & D D ' k.m...$.z.S.n.%.%.<XB.c.l.U.c.c.O.9 t % ` A A t t ",
"i @ i Q i ! S C m = -.=.=.#.|.|.}.G.| :XaX4X7X3X4XhXCX=.=.,X,X6X,X5X>X>X&.C.hX7XaXaXF.D.<XB.` (.u./ i ( 5.c.v.) k.z.z.Q.A.m.b.b.) ) k.Q.M.XXn.n.X.b  .-.-.=.|.=.=.z.C  .z.z.z.z.A.$.W.v.` $.z.z.",
"c.i Q ^ ( $ } $.~.n.hXnXnXDXnXhXDXgX4XAXLXLXLXKXKXIXIXgXhXDXDXDXmXhXCXDXhXaXSXLXLXSX2XMXIXJX(.%X$XE./ i./.U.j.l.qX(.wXzX<X~.wX<X' v.W.zXmXyX1XyX1X..M.Q. XZ.}. X1X>X%.n. X~.S.%.k.z.k.A.W.ZXsXsX",
"^ ~ , 3 + i { V k.A.@.@.n.S.@.&.' I *.2X!.+XiXD.!.~.<XA.S.1X~.aX3X~.F.4XC.z.N.*.B.+XOXqXeX/./ 4.p.r./ ! ! A A { /.c.c.i.! ) v.^.5.].v.j.).W.W.W.^.Y 5.t.] Y } O.$.z.....) ....j.D & D t.H t.U.c.",
"A U U ^ t.{ } b.k.A.P ' @.' L ' N.$.l.B.$.l.N.o.$.A.z.S.F.S.~.F.n.P F.C.F.wXD.A.C.o.C ` V ! 5.Y ! { t.Y j.v.W.x.{ c.c.U.! } } } k.j...} W.) S t.t.u.8./ / { ^ ] .. .k.X.m.X.X...K k.z.A.$.) l.O.",
"J ` k.) $.S k.S.n.n.-.Z.n.}.n.,XF.F.3XhXhXhX7X:X8X5X5X8X5XhX5XhX5X}.,X|.,X}.hXnX5X5X .S.1Xn.S.A.A.9X0Xm.sXcXyX.X0X0X0XrXM.XXyXXXS.M.S.M.1X~.} } A { ( { U./.^._ |.-.-.#.=.}.|.XX#.6X5X,X=.Z.:X,X",
"V B = = ) ) } ' @. .| | #.| | C.@.&.4X7X4X:X:XG.;.;.#.=.-.@.#.#.F.}.|.}.Z.=.Z.}.|.%.%.S.|.S.M.S. X XS.X. .L _ _ k.b.b.m.k.k.M.%.X.X.X.k.%.' ` ` * i t Z U.v.v._ n.%.S.| n.n.S.|.G Z.,XI N =.#.@.",
"5 # h ~ + , / % B m $.&.z.$.D.N.B.!.o.V o.@.@.C.&.@. .M m G L F ` B.H $.` ' z.@.@.L z.' ' ..B ' _ K  .k._ D V O 3 U u i { ! S Y S D D } } } } ) ! t A O.t.O.v.} H ! { V ) ] { t.W.V ) C 9 S } K ",
"k 3.2.l j <.l 4.r.U.vXNXNXJXfXBXIXPXxXOXuXuXaX3X2X XyXyX1XwXrX+X/.OX/.c.U./.9X9X(.Q.m.m.rX(.v.(.(.Q.Q.Q.(.P.^.7.L.Y.,.l 1.L.T.].c.K.(.9XiXzXzXeX(.t.R.vXiXNXNXNXHXlXjXp.p.Q 4.J.t.T.&X*XU.eXjXI.",
"1 3.d <.>.h T 1.4.r.HXkXqXiXcXiXPXNXqX+XfXsX@X@XF. X0XsX<Xb.j.K./.^.c.! A J.U.j.W.W.v.F K B.l.W.x.v.K.K.P.K.T.7.1.T >.6.T s.7.5.{ !.9XsXcXwXrX(.+XW.B.+X%XpXjXlXlXHXHX/ a.h d 1.d.Y.[.&XY.d.d.4.",
"~ Q r i i 3 @ y 5 ~ / r r ( J % J J J N.J ` I J m @.' A.m.& & S V 9 u $ i / i U A ) ! ) V H ! Z 3 ! ) B D ) { x.3 f ~ ,.i 6 ] Y S } l.` $.K K ' $.~.) } ! { 4.# Q i h h y 5 , i , f T ~ ~ y d h ",
"+XB.2X@X~.OX{ t.~ ~ h ~ l ~ 1.I.fXuXCXAXfX<XMXsXA.%.n.n.K P S.A.~.) Z / y.1.,.2.y i 4.R.J.c.r.d.d.p.Q t B.~.3XwXwXiXqXBX+XO.!.!.W.v.0X(.(.v.k.sX9X(./.%XkXGXI.u t.U Z t.u.J.7.J.f ,.1.~ , Q Y.y.",
"#XD.@X~.OX!.l.A i p <.~ y p y.pXxXAXsXfXIXLXJXvX(.~.~.$.@.&.N.wXMXO.Z Q / 1.g k 3.j a._.y.4.i h ,.1.c.t.z.~.4X>X~.uXD.$.l.N.A.v./.U.K.].j.! j./.v.x.^.%X&XJ.u.^ K.{ ] ] ^ 5.7.T.u ^ y.~ + > j ~ ",
"p i Q ! ! ! ^ 3 @ , f Q t % ! eXV.D.E.OXOX=X=XI.I.{ { ! J 9 H !.U.R.i @ y : < < d 8 >.6.f f 5 o # O $ x.) & C B S ! ! A U.} D } ! 8.{ R R J.7.i i f R ~ h i _.T.5 T 5 2 y 5 o y h + y y > y h w ",
"1.u / ! ! { ! ! { u.c.T.c.U.B.B.!.B.V.p.OX=X;X=X*X*XeX%XH xXxXR.$X*X*XI.I.~ ~ ~ 8.u.T.T.H.7.,.H.x.v.).).(.K.K.5.j.8.U./.K.} j.[ ^ J.'.$X-XY.d.u.L.y.d._._.lXlX=X&X[.s.,.,.i T f u 5 6.s., f.L.1.",
"W.` ) } z.m.A.v.9Xv.x.W.v.(.wXrXwX+X+XxXBXxXKXNXxXJXqXuX2XJXqXkXvX$X/.'.R.B.(.k...z.m.k.v.j.5.(..X0X0X).bX(.].K.K.[.x.4.] ] [ P.t.c.eX/.lXlX$X$X*X$Xc.=X*XvXkX/.T.K.K.{ c.! t.v.x.c.t.x.Z u.7.H.",
"` C ' ' ' ' ' ..F ' b.) } k.S K S C ` wX#X*.#XD.*.&.o.A.wXI z.!.( ( l.!.$. Xn.#.%.%. .%.j.c.%X5.b.v.b.} ) 5.] K.5.) } ) [ [ [ 0.b.t.v.R./.V.u.U.t.t.A { O.v.v.k.k.` ' V K ' & K j.{ ) ] ] R 8.R ",
"+.t.O.' $.A.o.~.v.z.(.W.z.~.A.&. XS. X1XD.D.7XG.I @.*.C.2X>X~.~.A.z.N.C.Z.Z.|.S.Z..X} c.7.4.y.y.I.U / r t.U.].j.9XQ.v.Q.m.} } Y b.Q.0.k.0.S 0.W.K.b.[ ' _ .._ C %. . . .P @.z.' V ` t 8.8.6.s.T ",
"R./.OX+XxXcX+XuXz.wX(.NXwXwXcX2XdXmXmXmXZXcXMXfXD.fXsX2XcXcX<XwXsX2XwXwXgXmXmXdXsX+X/.1.~ <.>.c ~ ~ d / J.U.%XU.W.A.k.W.K.{ ! U E 5.x.x.[ E x.].(.v.K.).j.m.[ D S.S.S.S.z.z.~.z.} t.A ^ ^ u.6.s.",
"^ p.U.c.^.U.l.O.O.l.B.%XB.!.V.!.k.v.B.j.c.p./ r.=XR.c.R.'.$X=X$XT.u.5.u.T.U.T.p.^ f.`.y.<.g l g l w.3.Y.a.s.s.,.u.U ^ 7.7.1.~ h 1.1.1.,.1.1.,.T ~ d f i f U L.{ j...0.} ..} l.t.{ t Q i 3 Q U r ",
"3 u ! { t.v.W.O.v.{ { O.t.l.l.W.O.} 4.^ y y y y <.h ~ h ~ 1.Q z 1 T ~ 1.1.,.<.g j <.c w g h e ( 1.~ ,.f.j > 1 d ,.f ~ h ~ j > k 1 2.>.j 2.<.2.y.f.y ~ 2.~ a._.u.Z ] ) 4 S Y t.T./.U.r.i % t.t.{ ",
"r 4.u.t.} z.A.z.z.k.' Q.(..XQ.k.W./.T.J.r y h h j f d h l 1 > . + g y.d.Y.$X~ + > y 1 g y.U.{ l.l.c.{ Q ,.w.f.~ w.2.a.f.d <.<.f.>.<.j h y.1.1.y.1.~ 1.~ ~ ~ ~ ,.u.8.] ^ c.t.t.c.U.%Xt.B.V z.l.l.",
"r / A Z ! } K ) j._ ) ) [ } ..E ] 5.! ! ! 4.1.T i + h <.f.2.z <.<.a.y.I.d.i.i.~ U U ~ 1.x.W.$.k.' l.} 4.R._.y.y.d.Y.L.h h y 3.w.`.>.2.<.6.^ R 7.u.8.U R ,.y y ^ 8.8.u./ 8.8.8.^ { 4.{ U.A t ! S ",
"U Y u ] ) S t t./.I.L.y.~ > y # t ] { A A ( ( ^ r ^ 4.y.f.a.c 3.f.~ U.v.U.W.} v.K.W.S j.v.} k.[ v.^./.! R 7.5.K.{ b.} t.! =X-X=X-Xa.L.d.L.u./ 8.R / 3 o 2 L.>.y.%XT.T.$X&Xd.h k y >.>.<.>.< 1 y ",
"3 u U ] Y 5.{ { U h <.a.a - w <.^ ) 5.B ) j.j.t.t.r ~ y.j w.3.g y.8.T.v.W.v.P.Q.).(.} ^.(.W.b.(.tX%X&X7.^ { ^.} 5.b.W.t.u.jX_.f.2.d 1 d 6.6.U 3 5 U 4.L.~ y.6.y.u.T./ # ,.y.1 : j 2.2.3.a 3.v k ",
"T f R Y 8.8.4.u , > w : > g j w.p.) } ..j.) ) ] ] R ,.h 1 < k >.>.L.4.8.] ^ ] ^ U t.T.u.x.7.t.x.x.t.8.4.i ^ t.] ^ ! t i u.y.a.>.v c 3.3.k 2.>.d k >.d >.h ^ 4.i T 4.T + 5 T f >.1 : d 3.- < a < ",
"~ , ^ ^ ] J.T.K.d.^ U Y._._.g.T.R.c.} V ' k.k.0.b.{ ^ 1., w l a h y.^ U R Z u.J.u.T.=Xy.4.y.u 7.8.u R T.R R { ^ /./.i.J.*X=Xd.Y.>.a.{.g._.-Xg.f.f.~ r.r.^ { v.{ 8.4.u 3 f U U J.J.y.1.5 ~ g.y.f.",
"E.i y i ,.7./ 5.t.t.! (.^.x.K.4.U ^ 5.) ' k.%.L P S ) t.4.^ y d y + f u % 5.tXK.L.1.d 1 ,.J.! ] U h i y u u { ^.jXvXvXzXvXvX%X%Xc.=XT.{ /.qXc.B.B.l.qXBXiX2XwXwXsXzX$.z.v.$.' ` S $.c.t.i.vXpX%X",
"E.p @ f d 5 u U t A { j.v.x.x.Z $ Z ) ) } K G L F ' $.{ c.A o h h ~ 1.Z * ' b.] r + w > + u ] ) u ~ ^ 5 u U u.^.v.(.qX~.(.~.j.9Xl.! l.!.' } z.} B.$.~.uXuX~.4XC. X1X%. .'  .n.@.' K 0 V { !./.V.",
"@ @ # @ i 5 , / ~ h Y.h y d , $ E & B _ E E Y % 6 Y 4 Y x.) ) Z , , i O b v.S { / i , ~ 1.{ ^.V U U u 3 A Z ! W.D K k.} S j.} [ ^.j.5.b.[ D j.j.x.%Xt.t.` $.m S ) F k.' K ` ` S } V.i./.p.E.g.p.",
", # h Q Q ~ j ,.~ k ~ > , i f ] Q.%.L _ k.v.x.] ] Z o Z ) [ ..} ! i u.t.} j.v.c.c./ E.GXHXvXtXtX%X%XeXt.v.j.K.j.j.k.k.v.} v.5.x.K.x.0.) [ ] (.K.5.K.T.x.t.W.} m.b...k.k.b.v.B.) %XeXHX*X=X=X;X;X",
": 2 T ~ T 5 f T 8 j f f u 6 ! b.n.-.X.n.%.$.' S } S ) { ) ) Y t.c./ 4.{ { ! Y A { { /.NXPXkX/.&XkXkXkXx.'.Y A { t.O.j.t.) ] 5.] ] ] 5.) E Y x.K.c.u.u.u.u.'.5.v.} ..) ) } ) j.) ^.&X$XT.'.f.~ f.",
". - d k 2 : >.2 d 2 5 R 8.! ) 9X@.| m G L M m L %.' ' V V ! U 3 ! { O t r % u B S ` v.H t.! { c.7.p.s.u.^ R t % ! ) j.t.U.Y ] Y Z j.} ) j.v.S ] Y u ] ! Y x.x.Y ) E ) S E E S j.) 5.^ U ~ h T d ",
"- < - 7 7 < : < + r i.OXc.xXrX~.Q.S. X XhX}.5X6X:X,XAX<XJ ( ~ ~ r t t.t.{ ! ! ! O.v.k.k.} 5.{ / , d >.~ d 1.J.T.%XU.c.b.v.j.K.v.E M.M.S.M.k.k.M._ W P.b.k.M.M.k.M.q.q.q.X.q.' E } c.U.5 f h 1 > ",
"- - s c 7 v 1 j h ( =XB.t.qX9XA.~.~.9X<XfXuXgX4X:X:X7XD.) @ U y.U c.K.5.8.! $ Y S ) j.k.) 5.x.^ y a j k 1 f 6.u.K.^.W.v.x.v.].(.k.k.X.X..._ k.k...n m.[ _ ..G G G _ D k..._ _ ' ] { ^ 3 y w X X ",
"s s - s c a : j ~ ~ I./ ^ ] Z ] ] Y U.c.t.O.` ` I &.N.D.~.S A 3 Z A S D j.P.n 4 D & & S B ] ] % , 1 d y ~ ,.6.J.u.u.^ { U t.^ H./ ^ { ! U r U U 8.u.Z 8.^ Z Z Y B ] ] 4 Y ) S t ! U / 1., > < > ",
"; ; x - a a 3.f.y.y ^ / A { ) ) 4.^ ^ h i Q Q 9 H <XaXdXcXrXxXvX%X^.].W.(.0X(.Q.(.v.S b.c.z.' ) { 1.p.1.,.6.u.7.7.~ O 3 u.,.T T 1.<.1.,.~ h y y >.k d d T ,.f s.^ u.U.{ ! { Y { J.U.J.L.1.>.>.>.",
"    ; ; - X z 1.d > d 7.U Y ! ! A r p , , y 3 A v.<XfXaXaXuXuXiX+X(.^.W.Q..XQ.m.A.)...W.v.) ..k.j.v.} S [ x.Y U U U i # h T ,.h g y > , h h , 1 1 : . : > j ,./ Y Z S ) } ] } ! j.c.4.p.d.f.f.f.",
"  ; ; < 1 w y.3 + 3 r Z U t ! U.i u # l l > , i U.l.z.I z.N.z.` j.v._ F B _ _ _ ' M.k...' b $.' ' z.W.j.D Y 4 & A U R T.,.5 T 5 2 5 5 U y.u.i h 1 j ~ 1.1.Y.y.U A & ) D ) ) j.S ) ) A ! ^ U ~ ~ ",
", h ,.7.x.x.[ 0.j.j.c.{ ] 5.J.] E 5.u.1.d 7 s l h ^ t.t V B ) H _ .._ ' ) b.b.k.' %.n. .@.' 9X(.+XqXzXqX9X^.5.j.v.} t.x.5.t.K.Z 7.0.5.] 5.5.4.K.8.x.J.8.J.j.x.x.^.] v.j.j.W.v.k.} j.S A x.t.^ u.",
"$ B E 0.E E W ....F ' H A Y / Z E [ 7.T 2 < 7 - d ,.u.t.5.! { ) G L K ) } b.j.z.n.Z.}.Z.%...).rXzX<XrXqXeX(.j.j.} } { j.5.x.x.Y ] [ 0.....E E ) Y } { t.} 9 } j.} Y t.] 5.) j.} } } Z 4 A ^ Z R "
};
