/* XPM */
static char *_a6f9b2455844f3db30623daaf3fa97dn0ZEFE7AW49Rnoha[] = {
/* columns rows colors chars-per-pixel */
"128 128 72 1 ",
"  c #C67227",
". c #CB7427",
"X c #C77528",
"o c #CB7629",
"O c #CD7B2C",
"+ c #D07729",
"@ c #D27D2D",
"# c #D87F2F",
"$ c #CE7E30",
"% c #D27F30",
"& c #D97F31",
"* c #CE812F",
"= c #D4812F",
"- c #D8822F",
"; c #CF8230",
": c #D58432",
"> c #DA8533",
", c #D68835",
"< c #DC8A36",
"1 c #D58638",
"2 c #DC8638",
"3 c #D78939",
"4 c #DE8939",
"5 c #DD8A38",
"6 c #DC8B38",
"7 c #DC8A39",
"8 c #DD893A",
"9 c #DD8B3A",
"0 c #DF8C38",
"q c #DD8E3A",
"w c #DD8D3C",
"e c #DE8F3C",
"r c #DE9037",
"t c #DE903C",
"y c #DE913C",
"u c #DE913D",
"i c #E08D36",
"p c #E08F37",
"a c #E08E3A",
"s c #E08E3B",
"d c #E08F3C",
"f c #E08E3D",
"g c #E1903B",
"h c #E1903E",
"j c #E1923E",
"k c #DE8E40",
"l c #DF9142",
"z c #E08D40",
"x c #E18F41",
"c c #E19343",
"v c #E29443",
"b c #E39643",
"n c #E29245",
"m c #E39446",
"M c #E39546",
"N c #E39447",
"B c #E39747",
"V c #E39649",
"C c #E49749",
"Z c #E39849",
"A c #E59849",
"S c #E5984B",
"D c #E49A4B",
"F c #E59A4B",
"G c #E59B4D",
"H c #E69C4E",
"J c #E89E4F",
"K c #E59D51",
"L c #E89F50",
"P c #E6A154",
"I c #E8A355",
"U c #E9A55A",
/* pixels */
"cceq7qqhdMSSSCx77qq7-->=<<<:===::<<<q<q7q77cMccxcMMvch<>7<77evvcchvchpphhhhv:@<>q<>>77qtqq7qtqqtehhee77q7>7qqq77q7>>7qqshhgpgvvt",
"7>>qshcMnSSc7>>><7<>>>@==>=@>@::=>>:>>>>>>@#->77dSMGGSMcchqq7tqccvvcvcsp7ss<d>@>7>7>>q>>7qqqeqqq<<<7>7q7qq7<qqq<qtdhhs7pphqvveMc",
">qhvScxxhq7<<<>==@+@=>::@:>:qqq77<77<:=>>>==@=<<>7sqdcMvSVvvh7qqqtMce77ecgsshhhce>7sq77:7>7qq<>7qq>7qhhq77<<<qdqhgsp7hcvcecvtq7<",
"cMSSMdq>q<>:::===:>q7q7qs<7sq<<<<qq777>>@==@:::>=--->q7vSnSGMMvh7>>qtvMMehcvgp7v7dqd<:>>:7qqq777qdqq7vhdhs7<7p>d<hvvcvceceqqq7q7",
"ch7>>7=@@==+=:77q7qhvvvvMcevMMcccdhqq7::7>:>:=>>==<<77p77cGSSVnvd2q7>qqqee77cMvhg<ghghshchhhhvhhhsp7gggqgqcvhvvMvZcvttqqq7qecnSC",
">@@=@==->>7><7dhcvcchMvveqheecMcccd7:::7>>7:@:>:==::<q<qp7hvSCCMVMccdqq:><>eMMcccvhMSSvdqhh7qqqqqdccdevMvMvMqqq7>qqqhvMMMSSdh7<<",
"@:<>:<><devcvchvvvvthhhhqvvvMMcMMMddddq77<>7q7::-@:=:==@=qqqpqqhdMMCnCcdes7>>>>77eMvMMMc77ecMMvq7eeq<<7qq>qevcMSGSSd7<:>>><::=@@",
"dcvvvvMMvtqht<<qtrt-><t<qthhqthvvvhvvMMMZMvvdvqqq>:=-@=-:>>=@@><><7<7dcSSSedMccee77q7qq-:7>qt:>qhdhvcMMMSSGMhqq>>>=>:==:>><><7qq",
"vvhtttq<<<<<q<><<<7,ht<<<q<:q<==<qq<<ttthtthhMZhdqe><7>>:>>=+++@>:<=>><<77hhc77dcMMcxnSx77dGGGSSSGGvc7<>>>>:>:>::>::>7qshcccMtec",
",<qvttq<qhhchqeqteecMcc77hqhtqhtghh7-:<<qqqq>qqhqhhMvMecqdqq77:=:=@=::@>@@>:>--7qq><:>7><<s7qd<>><>>>::@+@@>><7htehtcvvvhttr<<qq",
"cllMclcMecccccecctclMvcelceellt77eeccct7ttqtq<<<<<=:<qqqqhvMeeehM777<>:>::7<=++@@@==:><>>>>><>:=>-::<7qqq77dethtqq<q,,qhtghhhcvc",
"elMlllkelelllle77MleMllMMZMee7lleeeelte77eeMcvcvh7g7qq<:<q<<><tttq7<qthee7ehhq7edqqq7e7777dhhh<7cvMthMq<q<q<-qqh77teMMMne72qccce",
":O::::::::%OOOOO:::O:OO1111>%137777lk7lMMMcZMvvvccce222ccthq7tgq<>::><<<<<<ttqttttttqq<<qttqq<<<qq<qqthhtl77evMct7lMvMllleee7:$:",
"777<<l7ee77:>>>:77>>77<7>:<<<::::$;:$OO$%>3737777e7lkkle7ccecccee7e7cccvhhhqqtehtq7thq>7qhhhqccteccMce7e7>>13>>%@%::%>377<<7>@q7",
"OoO;::;;O:>77<<77<<<7<<,>>,<q77777>7><<<77><7>>,::%::;1>3eekllMMMctcetvlcte7cee222277cM7tccele73%33>::1@><,3,;:::::::::;OO=*O=O;",
"elee77><>:::::::O*OO*OO**@=:O:O**:***:O:;OO::O:,,7e77>><<::::::::O>::32>277lle777:>%1>1,::@:1:7<:<:,:1,3tllVZZZZZZZSSGVlllkllll7",
"ZGGZZGVVZSZMllllllll777e77eelllZZZZMMMMMlele7<>>::::*OO::>><7e>:>>><<>73>>>>,::::ll::,3O::O:>1eelVMVGSSGMccnnSMedevcvvvcccMMVSSV",
"MMSGSCGSSSxnvMMZVMMcZZZSSMSvSGGMGGLPMSSSGSSZMZZSZZSMMMMlle7>:::**O==::O;;O*=OO::>><e77ZKZSZMSvx7cCSvvSvGMhvMMvvdcvcddcnnSSMcvSSv",
"Mccdcc7MSSSMdccMnSvMSSSvcxcMccMvSSGGvvxxvvMvvvSvvMecvSGSGSZSVMZKlelllllZGlMMMZGMSGGSSSvvndMvvccMMcn7vxnnnnnexkxnnnnnvnd7qhhdcSvM",
"7ecccvMvvSvncSSSSxcvSSvvSSncdchcMMMMvSSSvvSSGGSMCSMncnvSSvMdxxSSSSSccecSSSSCMnMhxSvvcvhvdxxndkeelctee7eettteee7cMMMMMvMMnMMnnMcc",
"cCnc7cncnCSMcccccdddvvd7hd7cMccnnxSSCvcxMMMMMcdvMhhcccMvMchcMcvSvMvMvvceccvvMSx7enxkekkcceqqt:><><==>><<<>=<qqqqqtq77tvccccMkMne",
"eehqeee777SMMcMMdccnMxxxnM77MMne7xcM7nknccvvexCCCCd7MvvGKSGGnSSVcxx77777kkeeeMxevcq>>:7<<:::=:::::::::::==@@O=::OO+@>>><qqqtqthe",
"=>>>#>7q7ete2eeMMxekxxexnMceehte>evvceqevvh77eecMvcv7cMVMnee7eccvvee7qe7qtqq<<q7<:@+=:::@:::,>77e7>7777ee>>><<@:@::@@=:=:=::::==",
"=@@::==:::<<q7<<:>:>>>7hhhtq7q<qq7::<<<>:<<7qqttttqqe77htht>><7<>qqq<<::>==:::::><7:>7,:>>>>:=<tt,7eee<<,<777,<<77>&@:777,>>7><:",
"><>>7<,>:::<:=::@=@=@:::::=::>>><<>>>>>7>>7><qqq7::::><qq<::>@+=O@=:=+@@<>eet>:7<etllMZSVZKSnce2eeeeqqelMVSGZZGKKZZGMlMe3ee::7,7",
"Mlle>:,<777te777>%:>,<::::,=,:::==::=@OOO@@==:===@@=@++O+@==@:,::>777777,e,lZVSSZZMeee<>eq,q<=:===::>>7<<<<:<<<e><qqeeelMSVVVZSK",
"teZKGGPKKZlllee7><<,<<77e777><:::::=:,><,+++:<<,::::,<,:<>7:%>>>><>:77VKPUZZltqqq<q<:==:::<7qqvM>7ce2ecchtehet<7::::=::7q<:>>>7e",
"<7<<e=:<<ee7MGGGVSVl77>:::,<7>7e77>>:::@:>>>>>>,<:<7::>7ee<>:<,7eZZGSGMM<<<q>=++>:><hcMncnCVnVCnk277ee772777xnVVMkleqe7<:=>::::>",
"e7<:::@:::<q<<7qqeleMGSVVMle,:::::<7>77>tte7777>:777377<<7>>7llSPKZZe<qq<<==>qcvMMnne2:>:==OO=:::::=@=:@+oOOO==><7eeexxnnlVMchet",
"VVlMvMvht>:>@@::><:7<t>>lvZSnKGZll7:::<,,:===:::::><7,:<77eVSPPZZq7q7>==:<eMvMKn>=:@@::>qqqqqq777><2d7dqed7><<>:%:::O@OO.+:>eccV",
"XO@>7kxnMVMMl7>77>>===<<<7qq77eMSKKPKVlllt7,>:777777lllkllSPKSMq7q<<>=>qMMMV7:=O>qh7ee>77>2>7q<7<<<77:7<<2777dddh7<shsqq7>:=O@@.",
">>+ooOOO@:>exnVMMZle7==@==:>:><<<7eeMSSSKVllZVVMklZZGVKPKSZZM<qq<<>@@:eMMV>o@O>7777>eq7qsqeehh7qeheq7>>ghq7<<77777eeccshq777dh77",
"ddhds77:ooO=:@:7CKGnMMv7q>=@+=<<<<q<<<<qeMZZGIUSSKUIGGGZSMq<q<7<>==>ec7Sn@@o@77e2>>7shqeecSSSccGSSSJGGMevvthq7777<qq7<77e7e77<ss",
"dqqdhd7dsq77@oXO@=<nCVMMZZt><:=@=<@:::<<>><<7eMZGGGGGZve><77>>>>@>qMM7n7:O>7<7e77><ecvccdedeteqqeeqcvvhchdcSccc7<>7qqq<q777<777e",
"7dd77qqqqhcds7<=o+@@2VGVeele7-+.o=>>><<qqq<q:>>><qqq>>>>><7<<>>@:qMcMS:.o@77s>&>7qcvMSvcccthetttq<7ethttethhhthceMSMv7qvsh7qq7>>",
"7722<77sqqchs<-@ O@=:7MVkelMSvq<=:=:<<<q,qe7q<<<<<<77<<7<<:>>=@>7clkn:Oo+7dq77q<qhcnvMhtqhqqqqqq->::>qq>q77qeheqe77ccSSMvh7>#>e7",
"<7exhqqhdq7<>=OoO@:@@:xCnclcVeq<<:@O=<>><<<<>:>qq<<>:>7<<>:+===<7eknn:@O7d7><qqshMM777qtqq<:hq<qq<ee77777q7>qqq>>>teqqtSMvhqq->2",
"<7>27s7dd7>=ooO+@=:>7nKVk77Vc7>->=@@O@::>>>><:><ee77eq<:>::===qtnlMx2@@O7ed77<<qeMq>:><>7q::vvhhhh<7hh7de:7q<:-<777qtevtSGMhhq7<",
"<>&>7777s<#ooO@O=>7nSKVccZSMc7>>=@@@@+=:><<:,<<7e7<q<<<<<<>@@>qMZcVV<:=@7ds777sccSe><7qq7q7ed<hhdhvhqhs<<cc7<q7>>qqettcetSSvhcqq",
"qq<>>>77c7>=o@::7cSVxnnMZMc7q:==:=>@:<:<<<qqq7qee<>>eq<:>=:=@@<tVMMSc=@o>sdd7qqecScc>>qq><<ehhhhcssgghhhssdd>>h777>7tqte7tSGMvhq",
"7>>>:277hd7:o@@+>xn77ecSM7>:==O@7><<<<<qqqqqq<<<<=:><<<7><:>:=@->cecVe:@=<ds77qdcnv7eeqqq77qMhqssspssgpshhsdc7-7q>qq7>7<e7vMGMhq",
"<>><dhd7>:OO@:7xVn7kcMh7@@O+=<<<,qqe>>7>><q7qqqq<<<>><7<qq::>==>qMMlV7>:O:<<d>:q7cMMvqt7>>7qqcchhssggppsshhhdqqqh77q<q<77ehGMcch",
">227cd7:oO+=>nSVMene>=@.@::::>qqq7<qqMMlkVSZZZZZMlklle<<7<7><><=@:cMexC>@o@<dde7qqqcvMe77>q7qs7q7hvhhhhhhhhde7@:7777q>:7eecvhs7e",
"7d777O@@=7cSMcMke7>=@@:<<<eq7<>elnSKKGKKVKKPSSGSKSGZlZZZvq<>7q>>++:<hccC7@=O:d7<>777<hMSvcqeqqqqq77qqq7qqq77qqq77qqqhqchcSvh7q>7",
"7>7#o:@7nxcMMq<::=+:><q<><<lSlKKKKSZZt77e777,<<tel7kVVKKKGKMe<<<<<:=:7MMVx::O@<77>>7qhccSvt7<>>>7hsq<:777qh7:>>7q77q<7evSMh7>>:7",
"7:@o=:cneZvq::=:>q<:<elelZGPKZl7<7<:@=:><7<>>>7:>>:@:<,7eZVVPVlq7<<<:++hMkn7:O@qqh7<<>qhcSveqtte7>>>>>>7qqq77qqqqtq7chMchesq7727",
":Oo+:xccMq>=7=:<7qtkGGPVl2:@=>>>:>7777>%%:,:::@:>:>>e77,:,7lZKKZZe7qq<7=7vMMx::O<7qde7q<7>cMMSvt7eqqqheq77>q77tqqe7ecceh7qq<edqq",
"=2nVMMc<=:><qq7tKZSKZtt:@:@777:@:<::<==::::OO=::::::@:%>>,<<7tlnVZMe77q<:@>eMMM>=O>scde7><>77eececvvhcc777ee7qhccch7>>77777dd7@O",
"CMMh<::<<q<<qGSPKVlt,:7e7:@::>::==@@:=@@-:<<q<=.+==@=:<::::77:<77eZPMS7>:><@@<77Ve:+@>7dq727>:7hhcvvMMvecMMcMMchh7<77><7dq7:@:7G",
"7=@<<q<qtZKKMk7:77ee><<@@@==@+@:qqq7qq7qq7>qq<<>qqq<>>:@:><,>>ee7::tVGUGvqq<::@:tMk72@O=<qdq7>>77<q7qsh7<>h77q<7>777q<7@oO&7nlMc",
"<qq7cGVZl7:>>:>>::7:@==:<q><qeccccMcvkk7eMMMMchctctt77q7<===@=<<,7e7<e7VSGZe7<<=@@>eMVGe:o@::qqqddhc:>><>qqee7<>hq@o@=7e7xc7:+@:",
"7nkle7>::>,::==:<:><q77eckcccSxxxcvccvcMcMcSCCMMnMnnvvveheeq<q:O:7,<ee:,<lKPZMqq>=7=<qelMMnk>@=O@:OO:>>>>::@O=:=>7lnSMcq>=:><<7>",
"77777:@=:>:>q7qqqxecknCnMccnvhddvvSGMvvxcvvSSMMMhcMcnnnnnnk772<>-=@:7:>e7<7lVPKZcqq<>:@@@<tqelnMVnncknk77kkkcvZM7<><::<77tlMVSZl",
">@:==@::<eecccnMcMhcecvG7eccdMvvvSMMvcSvvvvvcvcScMSvvvdddMCnlMceeqq7@@:,<ee:<7lZKPKVte<<<>>@:>:=@@@@@:==-@::><<<>>:ttZVZMe7>>7<7",
"=<tq7ekcnMccMMMcMvcMcdcGSSVVGSGGGSSSSMMGGSGGGZGSMGvvSvvdvvcMnxcxkcht7q<>:::<,>7:q77elSVVSZce>&>><<<q:qe<<qqeqVGSGSZl<77>:>><::=:",
"McxndMccvvSSLGGZSSGl7eel7e7::<>>>:@:77qttel7elVMMVZZZZGSSSSnddvMednCcMvhe7<:::::,<>::7,77eMlSSVMVVZGGGIKZSZlMlt,7:lt><:=@@::<qtc",
"ccdMcCcMMZZZt7:>::::1:1,3,>,,::>><77,>>,>:::O:=oO::,<7lMZMKGGScSMSScchnVcce7qq<@:=@@@::<:7::>>77>><77q>7777,<<:::<@++@<>7tthMcnk",
"cccSZZk2:O:O;1>7:>@O:@%>:::31e>>>>1<<>1>%:@::37>:777,1:;*><qllZGGSvMSvSddcxMC7cnttq77<<>::>@=@:@@@::@++OO@@@===:><qqttehc7nxexdx",
"Mle>:=::>77<>>:1e7lveeeeelcceMeqecclllvlle7eek7>11>;,77l7:O:O::7lMZGZSSvvcMcch>Mcnneecqe777qeeqqqqqq>>q7qcqte777eexkenccMMccMSSG",
":OO:>>:O:7e7ee7ec7qcqqqttt<qtq<<q<<qqt7qqgghcelclcvMle3;>@:7>>,::*O::>elZKGGMMMxcSMMCccccnVxcnMe77cccedcMCSVnnx7vMMvMSvScvMGGZSe",
"><1:O7vveecceq7t><q<<qqqhvvcvvScvvMhcvv7qq>q>qqqthtcecMvel77:OO:77<<,::;=>qllGMMSSMvdvvSSvvds7dddddeq7chvvvvScvSnMSvMKSGVZMt,:O:",
":>7evqnthq><:<=<qhMMvcqeqe7>>7>-@@:>><>7dqdcdcvvtt<qqqthvMllcMlMl>;OO,<>:;;::7lZGGZSSvLSSvvvccncxcSSSSSSncdvvdvSGGGGZZl>::::>7<%",
"kce77hhq:<thvv7ecdq7>>>>:=::::=:>::>:>:=>=@@+@:<hehheqqq,hghtMllccVee>;:<t7q*O:>>elMMKGSSSSJSvvvccnMvvvvvSMnMVZZllle>::;,<q::$:k",
"2leqq<<<tvMcd77>#&=@:=<:><==<<>>7qs<7sq7->7<===@=@@<7eMvvrq,tthq772lklk$O,ql7:O:=><qlVZZZGGSScSSSCSCLPLSMSSSPMlll>:@;O:77:>:elM7",
"leq<<qtvMMc777>@=+@>=<<<qqqsshMSMCCSSnGGScdq7qq<>=@@><<dMMvqt,hthtk>hcle>;<<7<>O;;:<<qkVSMGGGGZZSZZGGGGGZZZSll7><<*;:77>::>klcel",
"ht<><qeehs77>==@@@><>7>scSSSSSSScx77MMMnSSSSSvhsq7<=:=77hcvvtq<<qqvMlcclk<$O%<eq7>O;*:>>>:7lkllllZlllMZl7le7:@@XO;7777,;$ellve7q",
"t>=qhvMc77>>====>>q<hMCVSMcvedddqqe7<7qhvvcVGSGcqq>=@@@:7hvMvqq<<<>>MMlceele>OO,<e77qO*oo*::O@:OO@:@:::*;;*;:>,q7e7<:O$1lcMh7n77",
"<:<qvM77q<>::=-<7hvvSSce77<>77qqqqqqq7><>:<dMSMSh7>-::>@:7dvMvht<,tqhhvMlte77:::;;,<777e77,11;;;::1::><7t77qq<:@;;:3elllchelMtqq",
"><hvMv7>>==:>@>sMMMcchq7:>><<qhMMMMMvce7>:<qhcMSMcsq<<+=>>><qheehtq=<hqhhcetcccMll71:OO:::%>eqq7<>q7777:<:OXo;3ellMMlvlccMeq77<>",
"hcd><7>:==><>qMMSVvcqq77qqttlcZe77eccMcece<>77qcMSCd>>@@:>:=@77dcchqrq<<7qqqeeeevMMMlMlee7331::::>>1::::131elnMMMMhelMMehqq:=<qt",
"hq77>@=@@-<svSCMch<7>>ttvvMZMMccteeccevZSMcq>>q7hMSSCcsq<7<@=+@>>><MMvt<q<qvtqqqecclclccccecvleellkekllMkkkkMcce7lcMvthqtq<<qqvv",
"qq=::=@<qhMSSCccq7>><tvMvveqcc7<7ehhcevvvvMMMvqqq>7hMCSGh7q<>==::<7q7hMMvht<><<<qttqghheccceM77lkeklelce777elellccqhgt<::<thhvcq",
"@=:=-<7vGGSMd77<qttcMccvchg7q<gs7hppgp7sphqqhecctMhq7>evMSMhq<>@@@=>777dvvveqqqq<q>=>,q<>qthhggqhghqhhevhvv7hqgtq<<<:><thvvvq>::",
":--77nnvMq7qhvccvcd7q<ggghhdhchqqeeq<7sqhhhss7ghdcetccq<qeMMMhq7<:::=@::<qdhhcMSMMMhqtt7<q<=<<<:>>><<<<<<<,,<<qr<qqthe7dq<<>:>::",
"hvCcd7<7tcvhcvqsshhhqqqh7<7qqqqqqqqq7777qqqq7:7hhgghvvMMq>7hMSSS777<-@:==:><7777<<qeceeMMvvttqqhtq<<<qqtthqqteeSvMMhq7<:@+:==--7",
"vc7>>tMv7evghvgM7s7<qqeet<7ccv77eeeq77et7h7q><77MhvhgvccSMt7qhvMMSvvsqq<====:==:-@>7777hccvMvvMZcccMvvhccMd7hq77>>:>::>:>7qgcnVM",
"7qvMMcvvq777h7:>qqeqehc7qeqdMSSSSSMch7eeetqe7q7d7hq7s<hvqcc<@>devMSSSCvhq-->>>=>:>>:@-=<q7777qq7hdehqq<:7<><>@@@::<<<<qqMSGMcdq>",
"Me7hvv<gqhqqsq7qtqe7>7cccSSMMeeMcZMSnd77ettthq>7q7hdshphvccMMctq7777ccSSCxch7q>-==@=@=>:>>:=>=@>>><<7>:=====:=>>@><qscMCM7d7><qv",
"ccvpghchq77<q777cccvcecq7qet>qheee>heeMJce7cteq<-:7hhhggghvvhhMvv77q>qhvMnCSScqsp7<>=@@=<:=>@>>=>>=:::==:>>@:<=<><shvCndMd7><tMM",
"Shpsq77777qthedchhhq7<:>7>>>>77qsq7tccvhcncqeeteeqqqqqMh7<7<hveqecvh7>7ddvxSSSMdq7p>>---=<:=::>>===:>>::=::<>-=>sqhSSCccq7:<hMMh",
"shhq77q7>eeecchc777:>>7sss7777qdq<>hchchvMSSve7ee:q<7q7>:hhhhssheevMc7<7qqvvnSSSCM777>>>q7<<>=<<<@+=<<<<:<777<7sshCSGMh77><tMcvv",
"hcq7>eehhSMe77st7qqqd7777qs<<<:>7qq7qhhhceevSSSMvhq>77777g<qhghphv7ecvcq7><qqedcSSSSCMvMdqqs7>->>>==-<<<q->>q77hCSnne7qq<<7hhShs",
"q>-:>tMSMhhsqqe<77>27eee222<>&&>>277:<7sq>77qeh7evMvvhhtqqqq77>7hg77ehtc777tq>:dshvdMCMnSSScs77>sq>7qpp7sq<hMSGSSCMcq:-qttc7chhh",
"777qhMMhhqq777x7d7<s7dqq7<qq7:7sdh777dcd7777777::7hheecdeq777>:q7h7sssscvdeeMMhqt=>777dcMSCSnnSchs7q<77cMccxCZceq7<<>7evcevsphv<",
"q7hMMhh7>&><7qcq7@@=OO@Ooo@:@OO=@@@:>qqqs<7dhdd7777d77hhcMMvct7<qqq7q77<sssqde7dvMctqq7>q777cSSSSnnMSSSVMvcchq77qtMMhhh7q7><7hqq",
"cSMqq777>77dq>O@=@@@:>ennnnGx7Cnd:::@O=O@Oo:777<7d7de7<qq<qhhMGvqe>7>><:7<qg7<7he>eMMvcqq<:7q7q7dhhd7e77q7<>7tvccvvvghvhqe7qq77t",
"qqq77>d77>77OO@O:dCVnVne7eee777MMnVSVnd>@@+@@@OoOO@>qhcs7e77777hcdMMeqqq><>7hcs7gsseheecMvttetqqqttqq>7qecvvevShpgvhM7hqq7qqMcvc",
"77777qq7:OoO@>enSVccMnMMcccceecMMMMcckkecnkxx72>:=@=@O>77dqhe7777qqdvvvc7<>7::7hhhhs7qsvvdte7cZMvMMeevccdhhg<ghhMqg7<>hhhvMMh777",
"hhsq:++oOO>dnVxelMZSMvcq77-<7q<@-:<qhccclkcvcnVSCM77>:=OO>7s7ddd7777<7hcMMMe7777><7qhhhsd77ggqvvhs77<s7qghchq777qqt7evcMhthse7<7",
":@OO@::dvKZkMekMSMhh>-><===+++===<<<qqqqhvMVZMvMnVVKC7:@::=O@>qhdq<<>><7qehMSvhe7qq7q><7qhqqqg7qsqq7777>>7q7>7tMvhSMeesde<7ceh77",
"=@:<xnMncnvvnSMh7q<<:+o+===@X.O=====-qq>7tcMSSvcnnVVGCc7>@@@Oo@>qdhshe>&:<77qeccdheqhe777qq<>777qqq7ethq7hvMvvMchqqq77e<qdqq>OO@",
"2xMn27cMZZchtq>=>:=:+@=::>::<-=+O@o+@=>>>>-:7eZMlcnnnSGnd>+O@=@OO@>777<dde>:&<7qeecchc7echhq7qedqhMMJSMvvhhqs777772>><cd7@OO=:@>",
"SMvMcZc>:->:=+OO@O==@+:><>@=:=><<:@@@=@+@@+@@-7qcMcMkMMMSVnd2@+@@:=o@::7dsd72>7777q7dh7ccchee7qvechhqshs7g7q>>><:><7#:>@O=+@>eMS",
"Mcchhq7==@@=:@=@=><<::::>:><<>><<<<<>::=+OO@=@+=<7qhMSZMnecVKSx7@O@:@oO@>qsdq<:::>>>>::7q77>::>7s7><7de>>7edch7>hs7>OO=::7cCGknc",
"SMhq<@oo+@:>>:<><<<>7qq7:>>@>>>7>:<::>>>><>@+@===><qqhcnMccMVKSn7>::O:@OOO>77shhe7qhe&>:7<>7777777<77777edhqqqhhq7>OO:@=@xGGnl7M",
"Vcq<:@=><><<qee<<>>>>>>777>><>>>>>>::7<<<>>=@+O@@=-->eVVccMVSKSC2d7>:=@@@Oo@@>77hcqqqshhhhccdhddhssq77sqq7q77hsq7<@O@@@=7nGSMneM",
"h:->>@+=>>><<:>eq7>:><77>::>::@>><><<<<>=@>=@@@@<7>qcnMcncSMCnc7-@=:=:+@O o@->7qdh7<cqq7qdchhhhd7<dhsss7777sq77>>oo+@@@>xSSMeeSc",
"VMhq><=@==::<=<qeqq7<>77><>7q<>>eq><<<<<<::Oo@=-77vSnclnnMKx227>@@@:@@Oooo>>77qss<7hhhhssddhhddh<7ss7<7sssqq77><-@oO@@:>xCSVnnMM",
"elGMhq<@@==:<>><,<qq7<>>qqqq<q>qq7<<<>==@O+@<>qMZVMcMMVSx77>=:@:::@OooO@=:>::77<<7s<<7cc7sccccd7hdhd7qsssssqsq77@@o o=:::>dnxxCx",
"nnMvZGM7<-:@=::>:::=<>::::<7<<<<<>>:>:@=:<>7ecMcMMnSSMc7=@=@==@ooO=>>>><7777sq7qh77ddqddq7sqdddd7qdchh7<7shds<>7s77>>OoOo@@>dMCM",
"nSVMncMMMcq<>====@@=@:::@@+:<<<7<:=@===>tcnMcMVSSSCcq@..o@:@Ooo=><7>77qsssss7hh<<dq77q7q777777<7<<ecccd7ddedch7<<7<77>:o @=:==:2",
"7nKVMnMMMnZe77<<>>::@@@@o...+@=====-<7hvVVllVMGVnx7@:@@=@@=Oo   o@@><>:7ssdhcdq777qqqq7sq><<<::ecc7d77277777dchshdsq7q7>>:oXO@O@",
":7nCMVMMMMcMMcMMcMMh77>7<<==<<>->q7eMZZMllnnGSnxcx7<>:O=::=+Oooo@>>77<>7s7chhdqqqssq7<77<<<:<ehddde7qqqqq77qq777<7h77<:<:@ O@:O@",
"==@><27cMVMKSVVnxxMcllkknM77chcc7cZSZMMkcMVVGGKSCx77>>:O==:=@OOo=>77<qhheq<7qshghhhs77777<77s777qshh77dcc7d7c<><7qq77hh77>=oXo:=",
"=@+o@==:@+:7dcxnCCSSSVVnMclkMMMMMMMMccnMVnMVSSncd7>@=@=::@OOXo =>>7q777:<<7hdcdx72eeeeexxxe777dceedeee7>>22e22>2eedd<<dhsq:@.oOO",
"=@OoOO@@@:::==:>><7dcCSMVVVnncc227cMnnnMSVMCnc><7>==@O=:=@=OO O@-::<7qhhdqqd7dee777&777eevvcx7d7e7277777772>7eeee27dhq777qq777>>",
"q7>>>>:+OoOOO@=@@@=:>7dnMSSSSVnnVVVSSVCCxcq7>@oo..o@::@@=+OOooo:>#::ssqdcq7<hhe2e7>>7772>>22222e7722227277772ex7772<7<<<7ch777sq",
"qq<77<:#::>>@@OoO=:==>7vCSGKKCMnMMnxnnxd7@+=@@=@+@@::@==@OX oooOO=>>>7qqshhhdq7scce>7e7ee7ed727e2ecedhh77ds7hhdsq7777qqhhchhsq77",
"q7<::#:777>>>->@oOO@=:=>7qxccxxnnxnnncc<->@@=::::@@@ooo X   oooOO==@@-7qqqdhh77qqq777qds777hq77hqdddddhhdh77chhddhh:::<7sdds<q7q",
"><777:>77<<>==OOOO==:+O@@::>><>72&&>7>>@+O@@+@@=@OoooOooO@oO:::>>@--##>:77qqsdhhhd77q77q>:77:::->>77>:<>77>7<:-@><<7>><>>:::>><>",
"oOOOOO@@OOXoOOoO@@:::=@@@@=:>:=@+::=O@=:::@=oooOOOooOOO@+>:@+@==@@+=>>:>>77<>777777>@@+Ooo@OOOooo OoOOXo .oooooOOOOOOO@@@@OOOOOO",
"@@@@.@@=:@@@===@@OO@===@@@=>>:<<>>>::==@::@@OoOooXXoo@O=::=@Xooooo oOoooooX oOOOOOOoooOOOoOO@=..Ooo@@@=@==:.+::::=@@@Oo@@@=::@@@",
"@==::>>>>7:ss77<7>>>><<<<<:77<<>:@@@@@@@=::@@+++.@@OOoo  OOOOOOOoOOO=====@@@@=@@=::==@::==@+====@@=@+@=:@:::::@::@@@=@@@@:::=@:=",
"==@@=@+@@@@>@@-><>:7>>>-::&:>>>>::=@+==@@:::+@OOOOooOOOoXooOooOO++=@+@@:==O+:+=:::::====:@@@@==:@+:=:=o@::@O@@@::==::@++@::::==@",
"@+==@@@=@@=>+@>>>>>=@+=@==:::@:@:===@@@@OO@=::>7<>7qqqq7<>=oX  oO=OO@:::=@:>>77q27d777>>::::=@@@@=::=:::::>::><>>::=@@@=@::@@::>",
">7777<>:@@+@@@=@==@@@=@@@@==OXoooOOO@@:><>#:<77sqhhhhhhh7s7>>>:@o OO=::@O@=>7<2dnnnxxcd77::>>:=->7<7dxMCCSnCnxxnnccxddd772>:<777",
"cd2:#:>>>::oO==::@+@@==@O o@+@>:><7qs><77777>:7qdddq7cc77<777>>:o oO@=::=:>7ddxMCCSSMSCCCSMnxnnnCGMxMGGGGSSVVVnMnVSKGGGGMxxx77dd",
"c7<>-===OX+@@::@@@OOoO=@@><77<<<7<77hdq7qqdqhqq7777<7>ech7777<<>>OOoO=:::@=::7dcMxMMnnSSSVMSSVVkxxnnknVVVMMVnnVVVxkknVVSGGGSGCCn",
"77:@::@@O@oo@OO:::77<<7<77q777ddd7e7>>><<2&>7eeed77e<sqqqqhddq777>:OOo==::==::>>7dxSKKVCGSMVVVnkxMnMVKSSGGSMSSSMMxSVSSMVCCCnxcdq",
"=oOO><77<>7qshhc>>ee77>77777>:>7qdqq7<77sq7qqsq<>>777<72eq7<7<dd7sq7::=@OOo@=::@@:=@@>2>27xnCnnCnc7777>7cce7>>::@@::::@@+:@:::::",
"hhs<<7>:<ee77e7<7qhgecqhvvvvvvvvvvv7vGMvvvvchhhhq7qqqqq7<7777edqhhq7<<<<<<<777:@@:@OoOoO==:::::@:@::====:::::OoXOOOOO@::::::>qqq",
"77<:q77<7eeccchvvMShhet7chheqqqqq:>qeee7>tqtctcvvMvvevhqq7qqq7q:>77>>>eeqedd777qqddq7<<77<7>>>:::O@@@@@@>@@:><7::qdd7qdqshee77:7",
"eh7vhlvd77<7e7q77qqq7:<>qq7qqq7<7qdh77ee7>77>7qqq77qq7tchcMMcMMveqhh7>7:<77<>>>7>>>77<dd7qq77qhddqqdhdq7csqqqqeq77>277777:7qq7gs",
"etMe77tq7<<7>>q7Mc77ddq77gssghgsshh<<<<<<g777shhg777<>q7<7777q<7q7SMMMeccc77hq<q<:#:>777<>>e7>>>77>77>777>27777777<<sshh77e7vvvh",
"qq7h77hchhsghssqvvvqeecccccccvMMvveMMMvveecMvheqMvggsghvhhh77q77eehqe7evMSMMMveehqqqhhqhqq7qqqq<77777qqq77qgh7qqdeecMvvchchteehq",
"MhhhhshhvccMMvvhh7::<<qq>>>>qqqqq7q7qtqqeqevMvcMvvvvveq7ppssd7qh7>7qqqqchqqeeqccMc7cMcedcMMSGSMMMMMceccMMcMMMccMMcdee7<>>7q7q77e",
"<vvhhveeet77qq7hhhccMvMVnxnnncncncdvvvhd7>q7q7>qtehvMtc77cSqshg>ssqcqh77qqq77:>7q7e7277777etthhq>>27qceehcccvvcttt7qeeqq7qsqMhvg",
"e7Mvtqqq>dv7enMnCSSCvdd77<7s7>qghhcMSKSSVnSvM7<<7<7<<=>tccMMeecvMvgss7s7dq7qqqqqqqdq>qeeeeknctt7<q7ttq7>>77qqqq7<:77qq7h7edsh<hh"
};
